<?xml version="1.0" encoding="UTF-8"?>
<svg width="177px" height="128px" viewBox="0 0 177 128" version="1.1" xmlns="http://www.w3.org/2000/svg" xmlns:xlink="http://www.w3.org/1999/xlink">
    <title>Shape</title>
    <g id="Page-1" stroke="none" stroke-width="1" fill="none" fill-rule="evenodd">
        <g id="Artboard" transform="translate(-6.000000, -19.000000)" fill="#FFFFFF">
            <g id="Group" transform="translate(6.000000, 19.000000)">
                <path d="M57.3397399,17.4511378 L17.4530607,57.3335217 C13.9747552,60.8114674 13.9747552,66.4502161 17.4530607,69.9280134 L57.3397399,109.810546 C60.8180602,113.288343 66.4572677,113.288343 69.935588,109.810546 C70.710016,109.036053 71.9658452,109.036053 72.7402732,109.810546 L80.4321528,117.501449 C81.2065808,118.275942 81.2065808,119.531487 80.4321528,120.30598 C71.1568299,129.580156 56.1184979,129.580156 46.843175,120.30598 L6.95648103,80.4234479 C-2.31882701,71.1491238 -2.31882701,56.1125597 6.95648103,46.8382356 L46.843175,6.95573302 C56.1184979,-2.31857767 71.1568299,-2.31857767 80.4321528,6.95573302 L88.8692171,15.3920075 L96.5679251,7.69409888 C105.843248,-1.58020736 120.881432,-1.58020736 130.156754,7.69409888 L170.04284,47.5765124 C179.319053,56.8508365 179.319053,71.887549 170.04284,81.1618731 L130.156754,121.044257 C120.881432,130.318581 105.843248,130.318581 96.5679251,121.044257 L88.3544162,112.831633 L88.3560491,112.83 L77.4778369,101.953107 L77.4763524,101.95474 L56.681246,81.1618731 C47.4059231,71.887549 47.4059231,56.8508365 56.681246,47.5765124 L78.3728007,25.8872936 L69.935588,17.4511378 C66.4572677,13.9731921 60.8180602,13.9731921 57.3397399,17.4511378 Z M107.06449,18.1894146 L99.365782,25.8872936 L99.3669695,25.888481 L88.8704047,36.3839155 L88.8692171,36.3827281 L67.1776624,58.0719469 C63.6994905,61.5498927 63.6994905,67.1884929 67.1776624,70.6664386 L88.1308608,91.6172322 L109.822416,69.9280134 C113.300587,66.4502161 113.300587,60.8114674 109.822416,57.3335217 L97.2676862,44.7801443 C96.1081966,43.620928 96.1081966,41.7413946 97.2676862,40.5820299 L103.565536,34.2848583 C104.724877,33.1254935 106.604761,33.1254935 107.764103,34.2848583 L120.318832,46.8382356 C129.594155,56.1125597 129.594155,71.1491238 120.318832,80.4234479 L98.6272772,102.112667 L107.06449,110.548822 C110.542662,114.026768 116.182018,114.026768 119.660338,110.548822 L159.546423,70.6664386 C163.025931,67.1884929 163.025931,61.5498927 159.546423,58.0719469 L119.660338,18.1894146 C116.182018,14.7116173 110.542662,14.7116173 107.06449,18.1894146 Z" id="Shape"></path>
            </g>
        </g>
    </g>
</svg>